<mxfile host="65bd71144e">
    <diagram id="6M8r8bfB_58MqNjK3w2X" name="Page-1">
        <mxGraphModel dx="1133" dy="710" grid="1" gridSize="10" guides="1" tooltips="1" connect="1" arrows="1" fold="1" page="0" pageScale="1" pageWidth="850" pageHeight="1100" math="0" shadow="0">
            <root>
                <mxCell id="0"/>
                <mxCell id="1" parent="0"/>
                <mxCell id="2" value="&lt;div style=&quot;color: rgb(246, 250, 253); background-color: rgb(8, 22, 32); font-family: Consolas, Consolas, &amp;quot;Courier New&amp;quot;, monospace; font-size: 14px; line-height: 19px;&quot;&gt;&lt;span style=&quot;color: #00b4d6;font-style: italic;&quot;&gt;class&lt;/span&gt; &lt;span style=&quot;color: #f4e286;&quot;&gt;CheckIn&lt;/span&gt;&lt;/div&gt;" style="swimlane;fontStyle=0;childLayout=stackLayout;horizontal=1;startSize=30;horizontalStack=0;resizeParent=1;resizeParentMax=0;resizeLast=0;collapsible=1;marginBottom=0;whiteSpace=wrap;html=1;" parent="1" vertex="1">
                    <mxGeometry x="450" y="295" width="310" height="160" as="geometry"/>
                </mxCell>
                <mxCell id="3" value="&lt;div style=&quot;color: rgb(246, 250, 253); background-color: rgb(8, 22, 32); font-family: Consolas, Consolas, &amp;quot;Courier New&amp;quot;, monospace; font-size: 14px; line-height: 19px;&quot;&gt;&lt;span style=&quot;color: #b2a8b4;&quot;&gt;instance&lt;/span&gt;&lt;span style=&quot;color: #c28e60;&quot;&gt;:&lt;/span&gt; &lt;span style=&quot;color: #d2d8d8;&quot;&gt;CheckIn&lt;/span&gt;&lt;span style=&quot;color: #f4e286;&quot;&gt;;&lt;/span&gt;&lt;/div&gt;" style="text;strokeColor=default;fillColor=none;align=left;verticalAlign=middle;spacingLeft=4;spacingRight=4;overflow=hidden;points=[[0,0.5],[1,0.5]];portConstraint=eastwest;rotatable=0;whiteSpace=wrap;html=1;strokeWidth=1;" parent="2" vertex="1">
                    <mxGeometry y="30" width="310" height="30" as="geometry"/>
                </mxCell>
                <mxCell id="4" value="&lt;div style=&quot;color: rgb(246, 250, 253); background-color: rgb(8, 22, 32); font-family: Consolas, Consolas, &amp;quot;Courier New&amp;quot;, monospace; font-size: 14px; line-height: 19px;&quot;&gt;&lt;span style=&quot;color: #f4e286;&quot;&gt;getInstance()&lt;/span&gt;&lt;span style=&quot;color: #c28e60;&quot;&gt;:&lt;/span&gt; &lt;span style=&quot;color: #d2d8d8;&quot;&gt;CheckIn {...}&lt;/span&gt;&lt;/div&gt;" style="text;strokeColor=none;fillColor=none;align=left;verticalAlign=middle;spacingLeft=4;spacingRight=4;overflow=hidden;points=[[0,0.5],[1,0.5]];portConstraint=eastwest;rotatable=0;whiteSpace=wrap;html=1;" parent="2" vertex="1">
                    <mxGeometry y="60" width="310" height="30" as="geometry"/>
                </mxCell>
                <mxCell id="7" value="&lt;span style=&quot;background-color: rgb(8, 22, 32); font-family: Consolas, Consolas, &amp;quot;Courier New&amp;quot;, monospace; font-size: 14px; color: rgb(244, 226, 134);&quot;&gt;checkIn(&lt;/span&gt;&lt;span style=&quot;background-color: rgb(8, 22, 32); font-family: Consolas, Consolas, &amp;quot;Courier New&amp;quot;, monospace; font-size: 14px; color: rgb(152, 212, 220);&quot;&gt;checkinMessage&lt;/span&gt;&lt;span style=&quot;background-color: rgb(8, 22, 32); font-family: Consolas, Consolas, &amp;quot;Courier New&amp;quot;, monospace; font-size: 14px; color: rgb(244, 226, 134);&quot;&gt;)&lt;/span&gt;&lt;span style=&quot;background-color: rgb(8, 22, 32); font-family: Consolas, Consolas, &amp;quot;Courier New&amp;quot;, monospace; font-size: 14px; color: rgb(194, 142, 96);&quot;&gt;:&lt;/span&gt;&lt;span style=&quot;background-color: rgb(8, 22, 32); color: rgb(246, 250, 253); font-family: Consolas, Consolas, &amp;quot;Courier New&amp;quot;, monospace; font-size: 14px;&quot;&gt; &lt;/span&gt;&lt;span style=&quot;background-color: rgb(8, 22, 32); font-family: Consolas, Consolas, &amp;quot;Courier New&amp;quot;, monospace; font-size: 14px; color: rgb(244, 226, 134);&quot;&gt;void&lt;/span&gt;&lt;span style=&quot;background-color: rgb(8, 22, 32); color: rgb(246, 250, 253); font-family: Consolas, Consolas, &amp;quot;Courier New&amp;quot;, monospace; font-size: 14px;&quot;&gt; &lt;/span&gt;&lt;span style=&quot;background-color: rgb(8, 22, 32); font-family: Consolas, Consolas, &amp;quot;Courier New&amp;quot;, monospace; font-size: 14px; color: rgb(244, 226, 134);&quot;&gt;{...}&lt;/span&gt;" style="text;strokeColor=none;fillColor=none;align=left;verticalAlign=middle;spacingLeft=4;spacingRight=4;overflow=hidden;points=[[0,0.5],[1,0.5]];portConstraint=eastwest;rotatable=0;whiteSpace=wrap;html=1;" parent="2" vertex="1">
                    <mxGeometry y="90" width="310" height="40" as="geometry"/>
                </mxCell>
                <mxCell id="5" value="&lt;span style=&quot;background-color: rgb(8, 22, 32); font-family: Consolas, Consolas, &amp;quot;Courier New&amp;quot;, monospace; font-size: 14px; color: rgb(194, 142, 96); font-style: italic;&quot;&gt;public&lt;/span&gt;&lt;span style=&quot;background-color: rgb(8, 22, 32); color: rgb(246, 250, 253); font-family: Consolas, Consolas, &amp;quot;Courier New&amp;quot;, monospace; font-size: 14px;&quot;&gt; &lt;/span&gt;&lt;span style=&quot;background-color: rgb(8, 22, 32); font-family: Consolas, Consolas, &amp;quot;Courier New&amp;quot;, monospace; font-size: 14px; color: rgb(244, 226, 134);&quot;&gt;showCheckList()&lt;/span&gt;&lt;span style=&quot;background-color: rgb(8, 22, 32); font-family: Consolas, Consolas, &amp;quot;Courier New&amp;quot;, monospace; font-size: 14px; color: rgb(194, 142, 96);&quot;&gt;:&lt;/span&gt;&lt;span style=&quot;background-color: rgb(8, 22, 32); color: rgb(246, 250, 253); font-family: Consolas, Consolas, &amp;quot;Courier New&amp;quot;, monospace; font-size: 14px;&quot;&gt; &lt;/span&gt;&lt;span style=&quot;background-color: rgb(8, 22, 32); font-family: Consolas, Consolas, &amp;quot;Courier New&amp;quot;, monospace; font-size: 14px; color: rgb(244, 226, 134);&quot;&gt;void&lt;/span&gt;&lt;span style=&quot;background-color: rgb(8, 22, 32); color: rgb(246, 250, 253); font-family: Consolas, Consolas, &amp;quot;Courier New&amp;quot;, monospace; font-size: 14px;&quot;&gt; &lt;/span&gt;&lt;span style=&quot;background-color: rgb(8, 22, 32); font-family: Consolas, Consolas, &amp;quot;Courier New&amp;quot;, monospace; font-size: 14px; color: rgb(244, 226, 134);&quot;&gt;{...}&lt;/span&gt;" style="text;strokeColor=none;fillColor=none;align=left;verticalAlign=middle;spacingLeft=4;spacingRight=4;overflow=hidden;points=[[0,0.5],[1,0.5]];portConstraint=eastwest;rotatable=0;whiteSpace=wrap;html=1;" parent="2" vertex="1">
                    <mxGeometry y="130" width="310" height="30" as="geometry"/>
                </mxCell>
                <mxCell id="9" value="" style="edgeStyle=elbowEdgeStyle;elbow=horizontal;endArrow=open;html=1;curved=0;rounded=0;endSize=12;startSize=8;exitX=1;exitY=0.5;exitDx=0;exitDy=0;entryX=0.998;entryY=0.091;entryDx=0;entryDy=0;entryPerimeter=0;endFill=0;strokeWidth=2;" parent="2" source="3" target="2" edge="1">
                    <mxGeometry width="50" height="50" relative="1" as="geometry">
                        <mxPoint x="380" y="105" as="sourcePoint"/>
                        <mxPoint x="420" y="-5" as="targetPoint"/>
                        <Array as="points">
                            <mxPoint x="360" y="35"/>
                        </Array>
                    </mxGeometry>
                </mxCell>
                <mxCell id="10" style="edgeStyle=none;html=1;entryX=0;entryY=0.5;entryDx=0;entryDy=0;endArrow=open;endFill=0;endSize=13;strokeWidth=2;" parent="1" source="6" target="4" edge="1">
                    <mxGeometry relative="1" as="geometry"/>
                </mxCell>
                <mxCell id="6" value="Client" style="rounded=1;whiteSpace=wrap;html=1;" parent="1" vertex="1">
                    <mxGeometry x="270" y="352.5" width="80" height="35" as="geometry"/>
                </mxCell>
            </root>
        </mxGraphModel>
    </diagram>
</mxfile>